<svg width="15" height="18" viewBox="0 0 15 18" fill="none" xmlns="http://www.w3.org/2000/svg">
<path d="M15 7.36364C15 13.0909 7.5 18 7.5 18C7.5 18 0 13.0909 0 7.36364C2.96403e-08 5.41068 0.790176 3.53771 2.1967 2.15676C3.60322 0.775809 5.51088 0 7.5 0C9.48912 0 11.3968 0.775809 12.8033 2.15676C14.2098 3.53771 15 5.41068 15 7.36364Z" stroke="#808080" stroke-linecap="round" stroke-linejoin="round"/>
<path d="M7.5 9.81818C8.88071 9.81818 10 8.71924 10 7.36363C10 6.00803 8.88071 4.90909 7.5 4.90909C6.11929 4.90909 5 6.00803 5 7.36363C5 8.71924 6.11929 9.81818 7.5 9.81818Z" stroke="#808080" stroke-linecap="round" stroke-linejoin="round"/>
</svg>
